<?xml version="1.0" encoding="UTF-8" standalone="no"?>
<!DOCTYPE svg PUBLIC "-//W3C//DTD SVG 1.1//EN"
 "http://www.w3.org/Graphics/SVG/1.1/DTD/svg11.dtd">
<!-- Generated by graphviz version 5.0.0 (20220707.1540)
 -->
<!-- Title: dependencies Pages: 1 -->
<svg width="2015pt" height="247pt"
 viewBox="0.00 0.00 2015.00 246.80" xmlns="http://www.w3.org/2000/svg" xmlns:xlink="http://www.w3.org/1999/xlink">
<g id="graph0" class="graph" transform="scale(1 1) rotate(0) translate(4 242.8)">
<title>dependencies</title>
<polygon fill="white" stroke="transparent" points="-4,4 -4,-242.8 2011,-242.8 2011,4 -4,4"/>
<text text-anchor="middle" x="1003.5" y="-8.2" font-family="sans-serif" font-size="14.00">dependencies</text>
<g id="clust1" class="cluster">
<title>cluster_AppModule</title>
<polygon fill="none" stroke="black" stroke-dasharray="1,5" points="8,-32.8 8,-230.8 1999,-230.8 1999,-32.8 8,-32.8"/>
</g>
<g id="clust16" class="cluster">
<title>cluster_AppModule_bootstrap</title>
<polygon fill="none" stroke="black" points="918,-170.8 918,-222.8 1042,-222.8 1042,-170.8 918,-170.8"/>
</g>
<g id="clust14" class="cluster">
<title>cluster_AppModule_imports</title>
<polygon fill="none" stroke="black" points="1847,-40.8 1847,-92.8 1991,-92.8 1991,-40.8 1847,-40.8"/>
</g>
<g id="clust2" class="cluster">
<title>cluster_AppModule_declarations</title>
<polygon fill="none" stroke="black" points="16,-40.8 16,-92.8 1839,-92.8 1839,-40.8 16,-40.8"/>
</g>
<!-- AppComponent -->
<g id="node1" class="node">
<title>AppComponent</title>
<polygon fill="#ffffb3" stroke="black" points="1830.94,-84.8 1725.06,-84.8 1725.06,-48.8 1830.94,-48.8 1830.94,-84.8"/>
<text text-anchor="middle" x="1778" y="-62.6" font-family="Times,serif" font-size="14.00">AppComponent</text>
</g>
<!-- AppModule -->
<g id="node12" class="node">
<title>AppModule</title>
<polygon fill="#8dd3c7" stroke="black" points="1021.66,-149.8 1018.66,-153.8 997.66,-153.8 994.66,-149.8 938.34,-149.8 938.34,-113.8 1021.66,-113.8 1021.66,-149.8"/>
<text text-anchor="middle" x="980" y="-127.6" font-family="Times,serif" font-size="14.00">AppModule</text>
</g>
<!-- AppComponent&#45;&gt;AppModule -->
<g id="edge1" class="edge">
<title>AppComponent&#45;&gt;AppModule</title>
<path fill="none" stroke="black" d="M1778,-85.08C1778,-106.12 1778,-137.8 1778,-137.8 1778,-137.8 1031.78,-137.8 1031.78,-137.8"/>
<polygon fill="black" stroke="black" points="1031.78,-134.3 1021.78,-137.8 1031.78,-141.3 1031.78,-134.3"/>
</g>
<!-- CrudTableBookComponent -->
<g id="node2" class="node">
<title>CrudTableBookComponent</title>
<polygon fill="#ffffb3" stroke="black" points="1707.54,-84.8 1536.46,-84.8 1536.46,-48.8 1707.54,-48.8 1707.54,-84.8"/>
<text text-anchor="middle" x="1622" y="-62.6" font-family="Times,serif" font-size="14.00">CrudTableBookComponent</text>
</g>
<!-- CrudTableBookComponent&#45;&gt;AppModule -->
<g id="edge2" class="edge">
<title>CrudTableBookComponent&#45;&gt;AppModule</title>
<path fill="none" stroke="black" d="M1622,-84.91C1622,-104.14 1622,-131.8 1622,-131.8 1622,-131.8 1032.12,-131.8 1032.12,-131.8"/>
<polygon fill="black" stroke="black" points="1032.12,-128.3 1022.12,-131.8 1032.12,-135.3 1032.12,-128.3"/>
</g>
<!-- CrudTableEditorialComponent -->
<g id="node3" class="node">
<title>CrudTableEditorialComponent</title>
<polygon fill="#ffffb3" stroke="black" points="1518.19,-84.8 1327.81,-84.8 1327.81,-48.8 1518.19,-48.8 1518.19,-84.8"/>
<text text-anchor="middle" x="1423" y="-62.6" font-family="Times,serif" font-size="14.00">CrudTableEditorialComponent</text>
</g>
<!-- CrudTableEditorialComponent&#45;&gt;AppModule -->
<g id="edge3" class="edge">
<title>CrudTableEditorialComponent&#45;&gt;AppModule</title>
<path fill="none" stroke="black" d="M1423,-84.82C1423,-102.17 1423,-125.8 1423,-125.8 1423,-125.8 1031.68,-125.8 1031.68,-125.8"/>
<polygon fill="black" stroke="black" points="1031.68,-122.3 1021.68,-125.8 1031.68,-129.3 1031.68,-122.3"/>
</g>
<!-- DetalleBookComponent -->
<g id="node4" class="node">
<title>DetalleBookComponent</title>
<polygon fill="#ffffb3" stroke="black" points="1310.09,-84.8 1157.91,-84.8 1157.91,-48.8 1310.09,-48.8 1310.09,-84.8"/>
<text text-anchor="middle" x="1234" y="-62.6" font-family="Times,serif" font-size="14.00">DetalleBookComponent</text>
</g>
<!-- DetalleBookComponent&#45;&gt;AppModule -->
<g id="edge4" class="edge">
<title>DetalleBookComponent&#45;&gt;AppModule</title>
<path fill="none" stroke="black" d="M1234,-85.04C1234,-100.37 1234,-119.8 1234,-119.8 1234,-119.8 1031.94,-119.8 1031.94,-119.8"/>
<polygon fill="black" stroke="black" points="1031.94,-116.3 1021.94,-119.8 1031.94,-123.3 1031.94,-116.3"/>
</g>
<!-- EditarBookComponent -->
<g id="node5" class="node">
<title>EditarBookComponent</title>
<polygon fill="#ffffb3" stroke="black" points="1139.88,-84.8 994.12,-84.8 994.12,-48.8 1139.88,-48.8 1139.88,-84.8"/>
<text text-anchor="middle" x="1067" y="-62.6" font-family="Times,serif" font-size="14.00">EditarBookComponent</text>
</g>
<!-- EditarBookComponent&#45;&gt;AppModule -->
<g id="edge5" class="edge">
<title>EditarBookComponent&#45;&gt;AppModule</title>
<path fill="none" stroke="black" d="M1007.95,-84.91C1007.95,-84.91 1007.95,-103.79 1007.95,-103.79"/>
<polygon fill="black" stroke="black" points="1004.45,-103.79 1007.95,-113.79 1011.45,-103.79 1004.45,-103.79"/>
</g>
<!-- EditarEditorialComponent -->
<g id="node6" class="node">
<title>EditarEditorialComponent</title>
<polygon fill="#ffffb3" stroke="black" points="976.03,-84.8 811.97,-84.8 811.97,-48.8 976.03,-48.8 976.03,-84.8"/>
<text text-anchor="middle" x="894" y="-62.6" font-family="Times,serif" font-size="14.00">EditarEditorialComponent</text>
</g>
<!-- EditarEditorialComponent&#45;&gt;AppModule -->
<g id="edge6" class="edge">
<title>EditarEditorialComponent&#45;&gt;AppModule</title>
<path fill="none" stroke="black" d="M957.22,-84.91C957.22,-84.91 957.22,-103.79 957.22,-103.79"/>
<polygon fill="black" stroke="black" points="953.72,-103.79 957.22,-113.79 960.72,-103.79 953.72,-103.79"/>
</g>
<!-- ListaBookComponent -->
<g id="node7" class="node">
<title>ListaBookComponent</title>
<polygon fill="#ffffb3" stroke="black" points="793.66,-84.8 654.34,-84.8 654.34,-48.8 793.66,-48.8 793.66,-84.8"/>
<text text-anchor="middle" x="724" y="-62.6" font-family="Times,serif" font-size="14.00">ListaBookComponent</text>
</g>
<!-- ListaBookComponent&#45;&gt;AppModule -->
<g id="edge7" class="edge">
<title>ListaBookComponent&#45;&gt;AppModule</title>
<path fill="none" stroke="black" d="M724,-85.04C724,-100.37 724,-119.8 724,-119.8 724,-119.8 928.3,-119.8 928.3,-119.8"/>
<polygon fill="black" stroke="black" points="928.3,-123.3 938.3,-119.8 928.3,-116.3 928.3,-123.3"/>
</g>
<!-- LoginComponent -->
<g id="node8" class="node">
<title>LoginComponent</title>
<polygon fill="#ffffb3" stroke="black" points="636.27,-84.8 521.73,-84.8 521.73,-48.8 636.27,-48.8 636.27,-84.8"/>
<text text-anchor="middle" x="579" y="-62.6" font-family="Times,serif" font-size="14.00">LoginComponent</text>
</g>
<!-- LoginComponent&#45;&gt;AppModule -->
<g id="edge8" class="edge">
<title>LoginComponent&#45;&gt;AppModule</title>
<path fill="none" stroke="black" d="M579,-84.82C579,-102.17 579,-125.8 579,-125.8 579,-125.8 928.22,-125.8 928.22,-125.8"/>
<polygon fill="black" stroke="black" points="928.22,-129.3 938.22,-125.8 928.22,-122.3 928.22,-129.3"/>
</g>
<!-- NuevaEditorialComponent -->
<g id="node9" class="node">
<title>NuevaEditorialComponent</title>
<polygon fill="#ffffb3" stroke="black" points="503.36,-84.8 336.64,-84.8 336.64,-48.8 503.36,-48.8 503.36,-84.8"/>
<text text-anchor="middle" x="420" y="-62.6" font-family="Times,serif" font-size="14.00">NuevaEditorialComponent</text>
</g>
<!-- NuevaEditorialComponent&#45;&gt;AppModule -->
<g id="edge9" class="edge">
<title>NuevaEditorialComponent&#45;&gt;AppModule</title>
<path fill="none" stroke="black" d="M420,-84.91C420,-104.14 420,-131.8 420,-131.8 420,-131.8 927.91,-131.8 927.91,-131.8"/>
<polygon fill="black" stroke="black" points="927.91,-135.3 937.91,-131.8 927.91,-128.3 927.91,-135.3"/>
</g>
<!-- NuevoBookComponent -->
<g id="node10" class="node">
<title>NuevoBookComponent</title>
<polygon fill="#ffffb3" stroke="black" points="318.49,-84.8 169.51,-84.8 169.51,-48.8 318.49,-48.8 318.49,-84.8"/>
<text text-anchor="middle" x="244" y="-62.6" font-family="Times,serif" font-size="14.00">NuevoBookComponent</text>
</g>
<!-- NuevoBookComponent&#45;&gt;AppModule -->
<g id="edge10" class="edge">
<title>NuevoBookComponent&#45;&gt;AppModule</title>
<path fill="none" stroke="black" d="M244,-85.08C244,-106.12 244,-137.8 244,-137.8 244,-137.8 928.32,-137.8 928.32,-137.8"/>
<polygon fill="black" stroke="black" points="928.32,-141.3 938.32,-137.8 928.32,-134.3 928.32,-141.3"/>
</g>
<!-- RegisterComponent -->
<g id="node11" class="node">
<title>RegisterComponent</title>
<polygon fill="#ffffb3" stroke="black" points="151.99,-84.8 24.01,-84.8 24.01,-48.8 151.99,-48.8 151.99,-84.8"/>
<text text-anchor="middle" x="88" y="-62.6" font-family="Times,serif" font-size="14.00">RegisterComponent</text>
</g>
<!-- RegisterComponent&#45;&gt;AppModule -->
<g id="edge11" class="edge">
<title>RegisterComponent&#45;&gt;AppModule</title>
<path fill="none" stroke="black" d="M88,-85.05C88,-107.82 88,-143.8 88,-143.8 88,-143.8 928.17,-143.8 928.17,-143.8"/>
<polygon fill="black" stroke="black" points="928.17,-147.3 938.17,-143.8 928.17,-140.3 928.17,-147.3"/>
</g>
<!-- AppComponent  -->
<g id="node14" class="node">
<title>AppComponent </title>
<polygon fill="#80b1d3" stroke="black" points="1034.44,-214.8 925.56,-214.8 925.56,-178.8 1034.44,-178.8 1034.44,-214.8"/>
<text text-anchor="middle" x="980" y="-192.6" font-family="Times,serif" font-size="14.00">AppComponent </text>
</g>
<!-- AppModule&#45;&gt;AppComponent  -->
<g id="edge13" class="edge">
<title>AppModule&#45;&gt;AppComponent </title>
<path fill="none" stroke="black" stroke-dasharray="1,5" d="M980,-149.91C980,-149.91 980,-168.79 980,-168.79"/>
<polygon fill="black" stroke="black" points="976.5,-168.79 980,-178.79 983.5,-168.79 976.5,-168.79"/>
</g>
<!-- AppRoutingModule -->
<g id="node13" class="node">
<title>AppRoutingModule</title>
<polygon fill="#8dd3c7" stroke="black" points="1983.28,-84.8 1980.28,-88.8 1959.28,-88.8 1956.28,-84.8 1854.72,-84.8 1854.72,-48.8 1983.28,-48.8 1983.28,-84.8"/>
<text text-anchor="middle" x="1919" y="-62.6" font-family="Times,serif" font-size="14.00">AppRoutingModule</text>
</g>
<!-- AppRoutingModule&#45;&gt;AppModule -->
<g id="edge12" class="edge">
<title>AppRoutingModule&#45;&gt;AppModule</title>
<path fill="none" stroke="black" d="M1919,-85.05C1919,-107.82 1919,-143.8 1919,-143.8 1919,-143.8 1031.86,-143.8 1031.86,-143.8"/>
<polygon fill="black" stroke="black" points="1031.86,-140.3 1021.86,-143.8 1031.86,-147.3 1031.86,-140.3"/>
</g>
</g>
</svg>
