<?xml version="1.0" encoding="UTF-8" standalone="no"?>
<!DOCTYPE svg PUBLIC "-//W3C//DTD SVG 1.1//EN"
 "http://www.w3.org/Graphics/SVG/1.1/DTD/svg11.dtd">
<!-- Generated by graphviz version 5.0.0 (20220707.1540)
 -->
<!-- Title: dependencies Pages: 1 -->
<svg width="2015pt" height="247pt"
 viewBox="0.00 0.00 2015.00 246.80" xmlns="http://www.w3.org/2000/svg" xmlns:xlink="http://www.w3.org/1999/xlink">
<g id="graph0" class="graph" transform="scale(1 1) rotate(0) translate(4 242.8)">
<title>dependencies</title>
<polygon fill="white" stroke="transparent" points="-4,4 -4,-242.8 2011,-242.8 2011,4 -4,4"/>
<text text-anchor="middle" x="1003.5" y="-8.2" font-family="sans-serif" font-size="14.00">dependencies</text>
<g id="clust1" class="cluster">
<title>cluster_AppModule</title>
<polygon fill="none" stroke="black" stroke-dasharray="1,5" points="8,-32.8 8,-230.8 1999,-230.8 1999,-32.8 8,-32.8"/>
</g>
<g id="clust2" class="cluster">
<title>cluster_AppModule_declarations</title>
<polygon fill="none" stroke="black" points="168,-40.8 168,-92.8 1991,-92.8 1991,-40.8 168,-40.8"/>
</g>
<g id="clust14" class="cluster">
<title>cluster_AppModule_imports</title>
<polygon fill="none" stroke="black" points="16,-40.8 16,-92.8 160,-92.8 160,-40.8 16,-40.8"/>
</g>
<g id="clust16" class="cluster">
<title>cluster_AppModule_bootstrap</title>
<polygon fill="none" stroke="black" points="899,-170.8 899,-222.8 1023,-222.8 1023,-170.8 899,-170.8"/>
</g>
<!-- AppComponent -->
<g id="node1" class="node">
<title>AppComponent</title>
<polygon fill="#ffffb3" stroke="black" points="1982.94,-84.8 1877.06,-84.8 1877.06,-48.8 1982.94,-48.8 1982.94,-84.8"/>
<text text-anchor="middle" x="1930" y="-62.6" font-family="Times,serif" font-size="14.00">AppComponent</text>
</g>
<!-- AppModule -->
<g id="node12" class="node">
<title>AppModule</title>
<polygon fill="#8dd3c7" stroke="black" points="1002.66,-149.8 999.66,-153.8 978.66,-153.8 975.66,-149.8 919.34,-149.8 919.34,-113.8 1002.66,-113.8 1002.66,-149.8"/>
<text text-anchor="middle" x="961" y="-127.6" font-family="Times,serif" font-size="14.00">AppModule</text>
</g>
<!-- AppComponent&#45;&gt;AppModule -->
<g id="edge1" class="edge">
<title>AppComponent&#45;&gt;AppModule</title>
<path fill="none" stroke="black" d="M1930,-85.05C1930,-107.82 1930,-143.8 1930,-143.8 1930,-143.8 1012.95,-143.8 1012.95,-143.8"/>
<polygon fill="black" stroke="black" points="1012.95,-140.3 1002.95,-143.8 1012.95,-147.3 1012.95,-140.3"/>
</g>
<!-- CrudTableBookComponent -->
<g id="node2" class="node">
<title>CrudTableBookComponent</title>
<polygon fill="#ffffb3" stroke="black" points="1859.54,-84.8 1688.46,-84.8 1688.46,-48.8 1859.54,-48.8 1859.54,-84.8"/>
<text text-anchor="middle" x="1774" y="-62.6" font-family="Times,serif" font-size="14.00">CrudTableBookComponent</text>
</g>
<!-- CrudTableBookComponent&#45;&gt;AppModule -->
<g id="edge2" class="edge">
<title>CrudTableBookComponent&#45;&gt;AppModule</title>
<path fill="none" stroke="black" d="M1774,-85.08C1774,-106.12 1774,-137.8 1774,-137.8 1774,-137.8 1012.72,-137.8 1012.72,-137.8"/>
<polygon fill="black" stroke="black" points="1012.72,-134.3 1002.72,-137.8 1012.72,-141.3 1012.72,-134.3"/>
</g>
<!-- CrudTableEditorialComponent -->
<g id="node3" class="node">
<title>CrudTableEditorialComponent</title>
<polygon fill="#ffffb3" stroke="black" points="1670.19,-84.8 1479.81,-84.8 1479.81,-48.8 1670.19,-48.8 1670.19,-84.8"/>
<text text-anchor="middle" x="1575" y="-62.6" font-family="Times,serif" font-size="14.00">CrudTableEditorialComponent</text>
</g>
<!-- CrudTableEditorialComponent&#45;&gt;AppModule -->
<g id="edge3" class="edge">
<title>CrudTableEditorialComponent&#45;&gt;AppModule</title>
<path fill="none" stroke="black" d="M1575,-84.91C1575,-104.14 1575,-131.8 1575,-131.8 1575,-131.8 1012.72,-131.8 1012.72,-131.8"/>
<polygon fill="black" stroke="black" points="1012.72,-128.3 1002.72,-131.8 1012.72,-135.3 1012.72,-128.3"/>
</g>
<!-- DetalleBookComponent -->
<g id="node4" class="node">
<title>DetalleBookComponent</title>
<polygon fill="#ffffb3" stroke="black" points="1462.09,-84.8 1309.91,-84.8 1309.91,-48.8 1462.09,-48.8 1462.09,-84.8"/>
<text text-anchor="middle" x="1386" y="-62.6" font-family="Times,serif" font-size="14.00">DetalleBookComponent</text>
</g>
<!-- DetalleBookComponent&#45;&gt;AppModule -->
<g id="edge4" class="edge">
<title>DetalleBookComponent&#45;&gt;AppModule</title>
<path fill="none" stroke="black" d="M1386,-84.82C1386,-102.17 1386,-125.8 1386,-125.8 1386,-125.8 1012.91,-125.8 1012.91,-125.8"/>
<polygon fill="black" stroke="black" points="1012.91,-122.3 1002.91,-125.8 1012.91,-129.3 1012.91,-122.3"/>
</g>
<!-- EditarBookComponent -->
<g id="node5" class="node">
<title>EditarBookComponent</title>
<polygon fill="#ffffb3" stroke="black" points="1291.88,-84.8 1146.12,-84.8 1146.12,-48.8 1291.88,-48.8 1291.88,-84.8"/>
<text text-anchor="middle" x="1219" y="-62.6" font-family="Times,serif" font-size="14.00">EditarBookComponent</text>
</g>
<!-- EditarBookComponent&#45;&gt;AppModule -->
<g id="edge5" class="edge">
<title>EditarBookComponent&#45;&gt;AppModule</title>
<path fill="none" stroke="black" d="M1219,-85.04C1219,-100.37 1219,-119.8 1219,-119.8 1219,-119.8 1012.74,-119.8 1012.74,-119.8"/>
<polygon fill="black" stroke="black" points="1012.74,-116.3 1002.74,-119.8 1012.74,-123.3 1012.74,-116.3"/>
</g>
<!-- EditarEditorialComponent -->
<g id="node6" class="node">
<title>EditarEditorialComponent</title>
<polygon fill="#ffffb3" stroke="black" points="1128.03,-84.8 963.97,-84.8 963.97,-48.8 1128.03,-48.8 1128.03,-84.8"/>
<text text-anchor="middle" x="1046" y="-62.6" font-family="Times,serif" font-size="14.00">EditarEditorialComponent</text>
</g>
<!-- EditarEditorialComponent&#45;&gt;AppModule -->
<g id="edge6" class="edge">
<title>EditarEditorialComponent&#45;&gt;AppModule</title>
<path fill="none" stroke="black" d="M983.28,-84.91C983.28,-84.91 983.28,-103.79 983.28,-103.79"/>
<polygon fill="black" stroke="black" points="979.78,-103.79 983.28,-113.79 986.78,-103.79 979.78,-103.79"/>
</g>
<!-- ListaBookComponent -->
<g id="node7" class="node">
<title>ListaBookComponent</title>
<polygon fill="#ffffb3" stroke="black" points="945.66,-84.8 806.34,-84.8 806.34,-48.8 945.66,-48.8 945.66,-84.8"/>
<text text-anchor="middle" x="876" y="-62.6" font-family="Times,serif" font-size="14.00">ListaBookComponent</text>
</g>
<!-- ListaBookComponent&#45;&gt;AppModule -->
<g id="edge7" class="edge">
<title>ListaBookComponent&#45;&gt;AppModule</title>
<path fill="none" stroke="black" d="M932.5,-84.91C932.5,-84.91 932.5,-103.79 932.5,-103.79"/>
<polygon fill="black" stroke="black" points="929,-103.79 932.5,-113.79 936,-103.79 929,-103.79"/>
</g>
<!-- LoginComponent -->
<g id="node8" class="node">
<title>LoginComponent</title>
<polygon fill="#ffffb3" stroke="black" points="788.27,-84.8 673.73,-84.8 673.73,-48.8 788.27,-48.8 788.27,-84.8"/>
<text text-anchor="middle" x="731" y="-62.6" font-family="Times,serif" font-size="14.00">LoginComponent</text>
</g>
<!-- LoginComponent&#45;&gt;AppModule -->
<g id="edge8" class="edge">
<title>LoginComponent&#45;&gt;AppModule</title>
<path fill="none" stroke="black" d="M731,-85.04C731,-100.37 731,-119.8 731,-119.8 731,-119.8 909.08,-119.8 909.08,-119.8"/>
<polygon fill="black" stroke="black" points="909.08,-123.3 919.08,-119.8 909.08,-116.3 909.08,-123.3"/>
</g>
<!-- NuevaEditorialComponent -->
<g id="node9" class="node">
<title>NuevaEditorialComponent</title>
<polygon fill="#ffffb3" stroke="black" points="655.36,-84.8 488.64,-84.8 488.64,-48.8 655.36,-48.8 655.36,-84.8"/>
<text text-anchor="middle" x="572" y="-62.6" font-family="Times,serif" font-size="14.00">NuevaEditorialComponent</text>
</g>
<!-- NuevaEditorialComponent&#45;&gt;AppModule -->
<g id="edge9" class="edge">
<title>NuevaEditorialComponent&#45;&gt;AppModule</title>
<path fill="none" stroke="black" d="M572,-84.82C572,-102.17 572,-125.8 572,-125.8 572,-125.8 909,-125.8 909,-125.8"/>
<polygon fill="black" stroke="black" points="909,-129.3 919,-125.8 909,-122.3 909,-129.3"/>
</g>
<!-- NuevoBookComponent -->
<g id="node10" class="node">
<title>NuevoBookComponent</title>
<polygon fill="#ffffb3" stroke="black" points="470.49,-84.8 321.51,-84.8 321.51,-48.8 470.49,-48.8 470.49,-84.8"/>
<text text-anchor="middle" x="396" y="-62.6" font-family="Times,serif" font-size="14.00">NuevoBookComponent</text>
</g>
<!-- NuevoBookComponent&#45;&gt;AppModule -->
<g id="edge10" class="edge">
<title>NuevoBookComponent&#45;&gt;AppModule</title>
<path fill="none" stroke="black" d="M396,-84.91C396,-104.14 396,-131.8 396,-131.8 396,-131.8 908.99,-131.8 908.99,-131.8"/>
<polygon fill="black" stroke="black" points="908.99,-135.3 918.99,-131.8 908.99,-128.3 908.99,-135.3"/>
</g>
<!-- RegisterComponent -->
<g id="node11" class="node">
<title>RegisterComponent</title>
<polygon fill="#ffffb3" stroke="black" points="303.99,-84.8 176.01,-84.8 176.01,-48.8 303.99,-48.8 303.99,-84.8"/>
<text text-anchor="middle" x="240" y="-62.6" font-family="Times,serif" font-size="14.00">RegisterComponent</text>
</g>
<!-- RegisterComponent&#45;&gt;AppModule -->
<g id="edge11" class="edge">
<title>RegisterComponent&#45;&gt;AppModule</title>
<path fill="none" stroke="black" d="M240,-85.08C240,-106.12 240,-137.8 240,-137.8 240,-137.8 909.12,-137.8 909.12,-137.8"/>
<polygon fill="black" stroke="black" points="909.12,-141.3 919.12,-137.8 909.12,-134.3 909.12,-141.3"/>
</g>
<!-- AppComponent  -->
<g id="node14" class="node">
<title>AppComponent </title>
<polygon fill="#80b1d3" stroke="black" points="1015.44,-214.8 906.56,-214.8 906.56,-178.8 1015.44,-178.8 1015.44,-214.8"/>
<text text-anchor="middle" x="961" y="-192.6" font-family="Times,serif" font-size="14.00">AppComponent </text>
</g>
<!-- AppModule&#45;&gt;AppComponent  -->
<g id="edge13" class="edge">
<title>AppModule&#45;&gt;AppComponent </title>
<path fill="none" stroke="black" stroke-dasharray="1,5" d="M961,-149.91C961,-149.91 961,-168.79 961,-168.79"/>
<polygon fill="black" stroke="black" points="957.5,-168.79 961,-178.79 964.5,-168.79 957.5,-168.79"/>
</g>
<!-- AppRoutingModule -->
<g id="node13" class="node">
<title>AppRoutingModule</title>
<polygon fill="#8dd3c7" stroke="black" points="152.28,-84.8 149.28,-88.8 128.28,-88.8 125.28,-84.8 23.72,-84.8 23.72,-48.8 152.28,-48.8 152.28,-84.8"/>
<text text-anchor="middle" x="88" y="-62.6" font-family="Times,serif" font-size="14.00">AppRoutingModule</text>
</g>
<!-- AppRoutingModule&#45;&gt;AppModule -->
<g id="edge12" class="edge">
<title>AppRoutingModule&#45;&gt;AppModule</title>
<path fill="none" stroke="black" d="M88,-85.05C88,-107.82 88,-143.8 88,-143.8 88,-143.8 909.19,-143.8 909.19,-143.8"/>
<polygon fill="black" stroke="black" points="909.19,-147.3 919.19,-143.8 909.19,-140.3 909.19,-147.3"/>
</g>
</g>
</svg>
